<?xml version="1.0" encoding="UTF-8" standalone="no"?>
<!DOCTYPE svg PUBLIC "-//W3C//DTD SVG 1.1//EN"
 "http://www.w3.org/Graphics/SVG/1.1/DTD/svg11.dtd">
<!-- Generated by graphviz version 2.44.1 (20200629.0846)
 -->
<!-- Title: dependencies Pages: 1 -->
<svg width="2951pt" height="284pt"
 viewBox="0.00 0.00 2951.00 284.00" xmlns="http://www.w3.org/2000/svg" xmlns:xlink="http://www.w3.org/1999/xlink">
<g id="graph0" class="graph" transform="scale(1 1) rotate(0) translate(4 280)">
<title>dependencies</title>
<polygon fill="white" stroke="transparent" points="-4,4 -4,-280 2947,-280 2947,4 -4,4"/>
<text text-anchor="start" x="1450.51" y="-42.4" font-family="sans-serif" font-weight="bold" font-size="14.00">Legend</text>
<polygon fill="#ffffb3" stroke="transparent" points="1237.5,-10 1237.5,-30 1257.5,-30 1257.5,-10 1237.5,-10"/>
<text text-anchor="start" x="1261.13" y="-15.4" font-family="sans-serif" font-size="14.00"> &#160;Declarations</text>
<polygon fill="#8dd3c7" stroke="transparent" points="1350.5,-10 1350.5,-30 1370.5,-30 1370.5,-10 1350.5,-10"/>
<text text-anchor="start" x="1374.23" y="-15.4" font-family="sans-serif" font-size="14.00"> &#160;Module</text>
<polygon fill="#80b1d3" stroke="transparent" points="1436.5,-10 1436.5,-30 1456.5,-30 1456.5,-10 1436.5,-10"/>
<text text-anchor="start" x="1460.28" y="-15.4" font-family="sans-serif" font-size="14.00"> &#160;Bootstrap</text>
<polygon fill="#fdb462" stroke="transparent" points="1533.5,-10 1533.5,-30 1553.5,-30 1553.5,-10 1533.5,-10"/>
<text text-anchor="start" x="1557.17" y="-15.4" font-family="sans-serif" font-size="14.00"> &#160;Providers</text>
<polygon fill="#fb8072" stroke="transparent" points="1629.5,-10 1629.5,-30 1649.5,-30 1649.5,-10 1629.5,-10"/>
<text text-anchor="start" x="1653.23" y="-15.4" font-family="sans-serif" font-size="14.00"> &#160;Exports</text>
<g id="clust1" class="cluster">
<title>cluster_AppModule</title>
<polygon fill="none" stroke="black" stroke-dasharray="1,5" points="8,-70 8,-268 2935,-268 2935,-70 8,-70"/>
</g>
<g id="clust2" class="cluster">
<title>cluster_AppModule_declarations</title>
<polygon fill="none" stroke="black" points="168,-78 168,-130 2927,-130 2927,-78 168,-78"/>
</g>
<g id="clust22" class="cluster">
<title>cluster_AppModule_imports</title>
<polygon fill="none" stroke="black" points="16,-78 16,-130 160,-130 160,-78 16,-78"/>
</g>
<g id="clust24" class="cluster">
<title>cluster_AppModule_bootstrap</title>
<polygon fill="none" stroke="black" points="1471,-208 1471,-260 1595,-260 1595,-208 1471,-208"/>
</g>
<!-- AboutusComponent -->
<g id="node1" class="node">
<title>AboutusComponent</title>
<polygon fill="#ffffb3" stroke="black" points="2919.27,-122 2790.73,-122 2790.73,-86 2919.27,-86 2919.27,-122"/>
<text text-anchor="middle" x="2855" y="-99.8" font-family="Times,serif" font-size="14.00">AboutusComponent</text>
</g>
<!-- AppModule -->
<g id="node20" class="node">
<title>AppModule</title>
<polygon fill="#8dd3c7" stroke="black" points="1574.66,-187 1571.66,-191 1550.66,-191 1547.66,-187 1491.34,-187 1491.34,-151 1574.66,-151 1574.66,-187"/>
<text text-anchor="middle" x="1533" y="-164.8" font-family="Times,serif" font-size="14.00">AppModule</text>
</g>
<!-- AboutusComponent&#45;&gt;AppModule -->
<g id="edge1" class="edge">
<title>AboutusComponent&#45;&gt;AppModule</title>
<path fill="none" stroke="black" d="M2855,-122.15C2855,-145.76 2855,-184 2855,-184 2855,-184 1584.75,-184 1584.75,-184"/>
<polygon fill="black" stroke="black" points="1584.75,-180.5 1574.75,-184 1584.75,-187.5 1584.75,-180.5"/>
</g>
<!-- AddloantypeComponent -->
<g id="node2" class="node">
<title>AddloantypeComponent</title>
<polygon fill="#ffffb3" stroke="black" points="2772.65,-122 2619.35,-122 2619.35,-86 2772.65,-86 2772.65,-122"/>
<text text-anchor="middle" x="2696" y="-99.8" font-family="Times,serif" font-size="14.00">AddloantypeComponent</text>
</g>
<!-- AddloantypeComponent&#45;&gt;AppModule -->
<g id="edge2" class="edge">
<title>AddloantypeComponent&#45;&gt;AppModule</title>
<path fill="none" stroke="black" d="M2696,-122.01C2696,-144.49 2696,-180 2696,-180 2696,-180 1584.73,-180 1584.73,-180"/>
<polygon fill="black" stroke="black" points="1584.73,-176.5 1574.73,-180 1584.73,-183.5 1584.73,-176.5"/>
</g>
<!-- AdminComponent -->
<g id="node3" class="node">
<title>AdminComponent</title>
<polygon fill="#ffffb3" stroke="black" points="2601.22,-122 2480.78,-122 2480.78,-86 2601.22,-86 2601.22,-122"/>
<text text-anchor="middle" x="2541" y="-99.8" font-family="Times,serif" font-size="14.00">AdminComponent</text>
</g>
<!-- AdminComponent&#45;&gt;AppModule -->
<g id="edge3" class="edge">
<title>AdminComponent&#45;&gt;AppModule</title>
<path fill="none" stroke="black" d="M2541,-122.04C2541,-143.66 2541,-177 2541,-177 2541,-177 1584.71,-177 1584.71,-177"/>
<polygon fill="black" stroke="black" points="1584.71,-173.5 1574.71,-177 1584.71,-180.5 1584.71,-173.5"/>
</g>
<!-- AppComponent -->
<g id="node4" class="node">
<title>AppComponent</title>
<polygon fill="#ffffb3" stroke="black" points="2462.94,-122 2357.06,-122 2357.06,-86 2462.94,-86 2462.94,-122"/>
<text text-anchor="middle" x="2410" y="-99.8" font-family="Times,serif" font-size="14.00">AppComponent</text>
</g>
<!-- AppComponent&#45;&gt;AppModule -->
<g id="edge4" class="edge">
<title>AppComponent&#45;&gt;AppModule</title>
<path fill="none" stroke="black" d="M2410,-122.13C2410,-142.57 2410,-173 2410,-173 2410,-173 1584.71,-173 1584.71,-173"/>
<polygon fill="black" stroke="black" points="1584.71,-169.5 1574.71,-173 1584.71,-176.5 1584.71,-169.5"/>
</g>
<!-- ContactusComponent -->
<g id="node5" class="node">
<title>ContactusComponent</title>
<polygon fill="#ffffb3" stroke="black" points="2339.82,-122 2202.18,-122 2202.18,-86 2339.82,-86 2339.82,-122"/>
<text text-anchor="middle" x="2271" y="-99.8" font-family="Times,serif" font-size="14.00">ContactusComponent</text>
</g>
<!-- ContactusComponent&#45;&gt;AppModule -->
<g id="edge5" class="edge">
<title>ContactusComponent&#45;&gt;AppModule</title>
<path fill="none" stroke="black" d="M2271,-122.11C2271,-141.34 2271,-169 2271,-169 2271,-169 1584.79,-169 1584.79,-169"/>
<polygon fill="black" stroke="black" points="1584.79,-165.5 1574.79,-169 1584.79,-172.5 1584.79,-165.5"/>
</g>
<!-- FilterPipe -->
<g id="node6" class="node">
<title>FilterPipe</title>
<polygon fill="#ffffb3" stroke="black" points="2184.72,-122 2113.28,-122 2113.28,-86 2184.72,-86 2184.72,-122"/>
<text text-anchor="middle" x="2149" y="-99.8" font-family="Times,serif" font-size="14.00">FilterPipe</text>
</g>
<!-- FilterPipe&#45;&gt;AppModule -->
<g id="edge6" class="edge">
<title>FilterPipe&#45;&gt;AppModule</title>
<path fill="none" stroke="black" d="M2149,-122.27C2149,-140.56 2149,-166 2149,-166 2149,-166 1584.86,-166 1584.86,-166"/>
<polygon fill="black" stroke="black" points="1584.86,-162.5 1574.86,-166 1584.86,-169.5 1584.86,-162.5"/>
</g>
<!-- FormstatusComponent -->
<g id="node7" class="node">
<title>FormstatusComponent</title>
<polygon fill="#ffffb3" stroke="black" points="2095.55,-122 1952.45,-122 1952.45,-86 2095.55,-86 2095.55,-122"/>
<text text-anchor="middle" x="2024" y="-99.8" font-family="Times,serif" font-size="14.00">FormstatusComponent</text>
</g>
<!-- FormstatusComponent&#45;&gt;AppModule -->
<g id="edge7" class="edge">
<title>FormstatusComponent&#45;&gt;AppModule</title>
<path fill="none" stroke="black" d="M2024,-122.03C2024,-139.06 2024,-162 2024,-162 2024,-162 1584.86,-162 1584.86,-162"/>
<polygon fill="black" stroke="black" points="1584.86,-158.5 1574.86,-162 1584.86,-165.5 1584.86,-158.5"/>
</g>
<!-- HeaderComponent -->
<g id="node8" class="node">
<title>HeaderComponent</title>
<polygon fill="#ffffb3" stroke="black" points="1933.74,-122 1812.26,-122 1812.26,-86 1933.74,-86 1933.74,-122"/>
<text text-anchor="middle" x="1873" y="-99.8" font-family="Times,serif" font-size="14.00">HeaderComponent</text>
</g>
<!-- HeaderComponent&#45;&gt;AppModule -->
<g id="edge8" class="edge">
<title>HeaderComponent&#45;&gt;AppModule</title>
<path fill="none" stroke="black" d="M1873,-122.01C1873,-138.05 1873,-159 1873,-159 1873,-159 1584.69,-159 1584.69,-159"/>
<polygon fill="black" stroke="black" points="1584.69,-155.5 1574.69,-159 1584.69,-162.5 1584.69,-155.5"/>
</g>
<!-- HomeComponent -->
<g id="node9" class="node">
<title>HomeComponent</title>
<polygon fill="#ffffb3" stroke="black" points="1793.55,-122 1678.45,-122 1678.45,-86 1793.55,-86 1793.55,-122"/>
<text text-anchor="middle" x="1736" y="-99.8" font-family="Times,serif" font-size="14.00">HomeComponent</text>
</g>
<!-- HomeComponent&#45;&gt;AppModule -->
<g id="edge9" class="edge">
<title>HomeComponent&#45;&gt;AppModule</title>
<path fill="none" stroke="black" d="M1736,-122.12C1736,-136.78 1736,-155 1736,-155 1736,-155 1585.06,-155 1585.06,-155"/>
<polygon fill="black" stroke="black" points="1585.06,-151.5 1575.06,-155 1585.06,-158.5 1585.06,-151.5"/>
</g>
<!-- LadComponent -->
<g id="node10" class="node">
<title>LadComponent</title>
<polygon fill="#ffffb3" stroke="black" points="1660.6,-122 1557.4,-122 1557.4,-86 1660.6,-86 1660.6,-122"/>
<text text-anchor="middle" x="1609" y="-99.8" font-family="Times,serif" font-size="14.00">LadComponent</text>
</g>
<!-- LadComponent&#45;&gt;AppModule -->
<g id="edge10" class="edge">
<title>LadComponent&#45;&gt;AppModule</title>
<path fill="none" stroke="black" d="M1566.14,-122.11C1566.14,-122.11 1566.14,-140.99 1566.14,-140.99"/>
<polygon fill="black" stroke="black" points="1562.64,-140.99 1566.14,-150.99 1569.64,-140.99 1562.64,-140.99"/>
</g>
<!-- LoanprogramsComponent -->
<g id="node11" class="node">
<title>LoanprogramsComponent</title>
<polygon fill="#ffffb3" stroke="black" points="1539.47,-122 1376.53,-122 1376.53,-86 1539.47,-86 1539.47,-122"/>
<text text-anchor="middle" x="1458" y="-99.8" font-family="Times,serif" font-size="14.00">LoanprogramsComponent</text>
</g>
<!-- LoanprogramsComponent&#45;&gt;AppModule -->
<g id="edge11" class="edge">
<title>LoanprogramsComponent&#45;&gt;AppModule</title>
<path fill="none" stroke="black" d="M1515.33,-122.11C1515.33,-122.11 1515.33,-140.99 1515.33,-140.99"/>
<polygon fill="black" stroke="black" points="1511.83,-140.99 1515.33,-150.99 1518.83,-140.99 1511.83,-140.99"/>
</g>
<!-- LoginComponent -->
<g id="node12" class="node">
<title>LoginComponent</title>
<polygon fill="#ffffb3" stroke="black" points="1358.28,-122 1243.72,-122 1243.72,-86 1358.28,-86 1358.28,-122"/>
<text text-anchor="middle" x="1301" y="-99.8" font-family="Times,serif" font-size="14.00">LoginComponent</text>
</g>
<!-- LoginComponent&#45;&gt;AppModule -->
<g id="edge12" class="edge">
<title>LoginComponent&#45;&gt;AppModule</title>
<path fill="none" stroke="black" d="M1301,-122.12C1301,-136.78 1301,-155 1301,-155 1301,-155 1481.26,-155 1481.26,-155"/>
<polygon fill="black" stroke="black" points="1481.26,-158.5 1491.26,-155 1481.26,-151.5 1481.26,-158.5"/>
</g>
<!-- MakeloanComponent -->
<g id="node13" class="node">
<title>MakeloanComponent</title>
<polygon fill="#ffffb3" stroke="black" points="1225.81,-122 1088.19,-122 1088.19,-86 1225.81,-86 1225.81,-122"/>
<text text-anchor="middle" x="1157" y="-99.8" font-family="Times,serif" font-size="14.00">MakeloanComponent</text>
</g>
<!-- MakeloanComponent&#45;&gt;AppModule -->
<g id="edge13" class="edge">
<title>MakeloanComponent&#45;&gt;AppModule</title>
<path fill="none" stroke="black" d="M1157,-122.01C1157,-138.05 1157,-159 1157,-159 1157,-159 1481.32,-159 1481.32,-159"/>
<polygon fill="black" stroke="black" points="1481.32,-162.5 1491.32,-159 1481.32,-155.5 1481.32,-162.5"/>
</g>
<!-- NewsComponent -->
<g id="node14" class="node">
<title>NewsComponent</title>
<polygon fill="#ffffb3" stroke="black" points="1070.7,-122 957.3,-122 957.3,-86 1070.7,-86 1070.7,-122"/>
<text text-anchor="middle" x="1014" y="-99.8" font-family="Times,serif" font-size="14.00">NewsComponent</text>
</g>
<!-- NewsComponent&#45;&gt;AppModule -->
<g id="edge14" class="edge">
<title>NewsComponent&#45;&gt;AppModule</title>
<path fill="none" stroke="black" d="M1014,-122.03C1014,-139.06 1014,-162 1014,-162 1014,-162 1480.97,-162 1480.97,-162"/>
<polygon fill="black" stroke="black" points="1480.97,-165.5 1490.97,-162 1480.97,-158.5 1480.97,-165.5"/>
</g>
<!-- RegisterComponent -->
<g id="node15" class="node">
<title>RegisterComponent</title>
<polygon fill="#ffffb3" stroke="black" points="938.98,-122 811.02,-122 811.02,-86 938.98,-86 938.98,-122"/>
<text text-anchor="middle" x="875" y="-99.8" font-family="Times,serif" font-size="14.00">RegisterComponent</text>
</g>
<!-- RegisterComponent&#45;&gt;AppModule -->
<g id="edge15" class="edge">
<title>RegisterComponent&#45;&gt;AppModule</title>
<path fill="none" stroke="black" d="M875,-122.27C875,-140.56 875,-166 875,-166 875,-166 1481.34,-166 1481.34,-166"/>
<polygon fill="black" stroke="black" points="1481.34,-169.5 1491.34,-166 1481.34,-162.5 1481.34,-169.5"/>
</g>
<!-- ServiceComponent -->
<g id="node16" class="node">
<title>ServiceComponent</title>
<polygon fill="#ffffb3" stroke="black" points="792.81,-122 669.19,-122 669.19,-86 792.81,-86 792.81,-122"/>
<text text-anchor="middle" x="731" y="-99.8" font-family="Times,serif" font-size="14.00">ServiceComponent</text>
</g>
<!-- ServiceComponent&#45;&gt;AppModule -->
<g id="edge16" class="edge">
<title>ServiceComponent&#45;&gt;AppModule</title>
<path fill="none" stroke="black" d="M731,-122.11C731,-141.34 731,-169 731,-169 731,-169 1481.29,-169 1481.29,-169"/>
<polygon fill="black" stroke="black" points="1481.29,-172.5 1491.29,-169 1481.29,-165.5 1481.29,-172.5"/>
</g>
<!-- StatuspipePipe -->
<g id="node17" class="node">
<title>StatuspipePipe</title>
<polygon fill="#ffffb3" stroke="black" points="651.72,-122 552.28,-122 552.28,-86 651.72,-86 651.72,-122"/>
<text text-anchor="middle" x="602" y="-99.8" font-family="Times,serif" font-size="14.00">StatuspipePipe</text>
</g>
<!-- StatuspipePipe&#45;&gt;AppModule -->
<g id="edge17" class="edge">
<title>StatuspipePipe&#45;&gt;AppModule</title>
<path fill="none" stroke="black" d="M602,-122.13C602,-142.57 602,-173 602,-173 602,-173 1481.19,-173 1481.19,-173"/>
<polygon fill="black" stroke="black" points="1481.19,-176.5 1491.19,-173 1481.19,-169.5 1481.19,-176.5"/>
</g>
<!-- UpdateloanComponent -->
<g id="node18" class="node">
<title>UpdateloanComponent</title>
<polygon fill="#ffffb3" stroke="black" points="533.86,-122 388.14,-122 388.14,-86 533.86,-86 533.86,-122"/>
<text text-anchor="middle" x="461" y="-99.8" font-family="Times,serif" font-size="14.00">UpdateloanComponent</text>
</g>
<!-- UpdateloanComponent&#45;&gt;AppModule -->
<g id="edge18" class="edge">
<title>UpdateloanComponent&#45;&gt;AppModule</title>
<path fill="none" stroke="black" d="M461,-122.04C461,-143.66 461,-177 461,-177 461,-177 1481.31,-177 1481.31,-177"/>
<polygon fill="black" stroke="black" points="1481.31,-180.5 1491.31,-177 1481.31,-173.5 1481.31,-180.5"/>
</g>
<!-- UpdateloanprogramComponent -->
<g id="node19" class="node">
<title>UpdateloanprogramComponent</title>
<polygon fill="#ffffb3" stroke="black" points="369.79,-122 176.21,-122 176.21,-86 369.79,-86 369.79,-122"/>
<text text-anchor="middle" x="273" y="-99.8" font-family="Times,serif" font-size="14.00">UpdateloanprogramComponent</text>
</g>
<!-- UpdateloanprogramComponent&#45;&gt;AppModule -->
<g id="edge19" class="edge">
<title>UpdateloanprogramComponent&#45;&gt;AppModule</title>
<path fill="none" stroke="black" d="M273,-122.01C273,-144.49 273,-180 273,-180 273,-180 1481.08,-180 1481.08,-180"/>
<polygon fill="black" stroke="black" points="1481.08,-183.5 1491.08,-180 1481.08,-176.5 1481.08,-183.5"/>
</g>
<!-- AppComponent  -->
<g id="node22" class="node">
<title>AppComponent </title>
<polygon fill="#80b1d3" stroke="black" points="1587.44,-252 1478.56,-252 1478.56,-216 1587.44,-216 1587.44,-252"/>
<text text-anchor="middle" x="1533" y="-229.8" font-family="Times,serif" font-size="14.00">AppComponent </text>
</g>
<!-- AppModule&#45;&gt;AppComponent  -->
<g id="edge21" class="edge">
<title>AppModule&#45;&gt;AppComponent </title>
<path fill="none" stroke="black" stroke-dasharray="1,5" d="M1533,-187.11C1533,-187.11 1533,-205.99 1533,-205.99"/>
<polygon fill="black" stroke="black" points="1529.5,-205.99 1533,-215.99 1536.5,-205.99 1529.5,-205.99"/>
</g>
<!-- AppRoutingModule -->
<g id="node21" class="node">
<title>AppRoutingModule</title>
<polygon fill="#8dd3c7" stroke="black" points="152.27,-122 149.27,-126 128.27,-126 125.27,-122 23.73,-122 23.73,-86 152.27,-86 152.27,-122"/>
<text text-anchor="middle" x="88" y="-99.8" font-family="Times,serif" font-size="14.00">AppRoutingModule</text>
</g>
<!-- AppRoutingModule&#45;&gt;AppModule -->
<g id="edge20" class="edge">
<title>AppRoutingModule&#45;&gt;AppModule</title>
<path fill="none" stroke="black" d="M88,-122.15C88,-145.76 88,-184 88,-184 88,-184 1481.31,-184 1481.31,-184"/>
<polygon fill="black" stroke="black" points="1481.31,-187.5 1491.31,-184 1481.31,-180.5 1481.31,-187.5"/>
</g>
</g>
</svg>
