<?xml version="1.0"?>
<svg version="1.1" xmlns="http://www.w3.org/2000/svg" width="547" height="200" style=""><path fill="#000000" d="M57.631,145.924c0,1.602-0.801,2.136-2.136,2.136l-31.684,0c-1.602,0-2.314-0.534-2.314-2.492l0-56.871c0-1.424,0.712-2.225,2.136-2.225l7.12,0c1.602,0,2.225,0.623,2.225,2.314l0,49.751l22.517,0c1.513,0,2.136,0.712,2.136,2.047l0,5.34z M110.0965,126.433c0,12.816-7.832,22.695-21.716,22.695c-14.507,0-21.182-9.79-21.182-22.784c0-12.816,7.832-22.606,21.716-22.606c14.507,0,21.182,9.612,21.182,22.695z M98.9715,126.433c0-7.298-2.314-14.24-10.146-14.24c-7.921,0-10.502,6.853-10.502,13.973c0,7.298,2.225,14.507,10.146,14.507c7.832,0,10.502-6.942,10.502-14.24z M165.944,146.369c0,1.068-0.712,1.691-1.78,1.691l-4.272,0c-4.628,0-6.675-2.225-7.298-5.251l-0.178,0c-2.225,3.293-8.01,6.319-12.905,6.319c-12.549,0-18.245-10.324-18.245-21.894c0-15.397,9.256-23.496,19.224-23.496c4.717,0,9.167,2.136,11.392,5.162l0.178-2.403c0.089-0.979,0.801-1.602,1.869-1.602l6.23,0c1.157,0,1.869,0.623,1.869,1.958l0,30.883c0,1.246,0.178,2.136,0.534,2.581c0.267,0.267,0.623,0.356,1.068,0.356l0.712,0c1.068,0,1.602,0.356,1.602,1.513l0,4.183z M151.259,134.265l0-17.177c-1.78-2.581-5.429-4.539-8.811-4.539c-5.429,0-10.057,4.628-10.057,13.973c0,7.476,2.848,13.795,9.434,13.795c4.361,0,8.099-3.293,9.434-6.052z M217.6975,145.746c0,1.513-0.534,2.314-2.136,2.314l-6.408,0c-1.602,0-2.136-0.801-2.136-2.314l0-24.208c0-4.895-1.335-8.366-6.764-8.366c-3.471,0-7.743,1.869-10.502,4.272l0,28.391c0,1.513-0.623,2.225-2.136,2.225l-6.497,0c-1.335,0-2.136-0.712-2.136-2.136l0-38.804c0-1.424,0.623-2.225,2.225-2.225l5.785,0c1.246,0,2.047,0.356,2.136,1.691l0.089,2.314c4.094-3.293,9.256-5.162,14.418-5.162c9.968,0,14.062,6.23,14.062,15.931l0,26.077z M275.414,105.874c0,13.795-10.413,20.559-23.496,20.559c-0.712,0-4.717-0.178-5.34-0.267l0,19.758c0,1.335-0.534,2.136-2.225,2.136l-7.12,0c-1.424,0-2.136-0.623-2.136-2.403l0-56.782c0-1.78,0.534-2.403,2.225-2.403l12.905,0c9.434,0,16.376,1.78,20.737,6.764c2.848,3.293,4.45,7.832,4.45,12.638z M263.844,106.319c0-8.099-4.984-10.947-12.638-10.947l-4.628,0l0,22.072c0.712,0,4.717,0.089,5.251,0.089c7.565,0,12.015-3.56,12.015-11.214z M330.9055,146.369c0,1.068-0.712,1.691-1.78,1.691l-4.272,0c-4.628,0-6.675-2.225-7.298-5.251l-0.178,0c-2.225,3.293-8.01,6.319-12.905,6.319c-12.549,0-18.245-10.324-18.245-21.894c0-15.397,9.256-23.496,19.224-23.496c4.717,0,9.167,2.136,11.392,5.162l0.178-2.403c0.089-0.979,0.801-1.602,1.869-1.602l6.23,0c1.157,0,1.869,0.623,1.869,1.958l0,30.883c0,1.246,0.178,2.136,0.534,2.581c0.267,0.267,0.623,0.356,1.068,0.356l0.712,0c1.068,0,1.602,0.356,1.602,1.513l0,4.183z M316.2205,134.265l0-17.177c-1.78-2.581-5.429-4.539-8.811-4.539c-5.429,0-10.057,4.628-10.057,13.973c0,7.476,2.848,13.795,9.434,13.795c4.361,0,8.099-3.293,9.434-6.052z M382.926,106.141c0,0.267-0.089,0.534-0.178,0.89l-17.533,46.102c-4.005,10.591-8.989,14.329-19.669,14.329c-1.691,0-3.204-0.089-4.717-0.445c-0.979-0.178-1.335-0.712-1.335-1.513c0-0.267,0.089-0.445,0.089-0.801l0.623-4.628c0.178-1.157,0.623-1.602,1.602-1.602l0.534,0c1.068,0.089,2.136,0.267,3.026,0.267c5.518,0,7.832-1.958,9.612-6.141l1.691-4.005l-16.198-41.741c-0.089-0.267-0.178-0.445-0.178-0.712c0-0.712,0.534-1.246,1.335-1.246l8.544,0c1.246,0,1.869,0.623,2.225,1.513l9.879,29.459l9.345-28.925c0.445-1.424,1.157-2.047,2.67-2.047l7.209,0c0.89,0,1.424,0.534,1.424,1.246z"/><path fill="#" d="M407.0095,108.755l0,1.445l-5.406,0l0-1.445l1.275-0.459l-0.408-1.241l-3.774,0l-0.425,1.224l1.326,0.476l0,1.445l-5.134,0l0-1.445l1.241-0.476l3.74-10.013l2.72-0.051l3.655,10.064z M401.9095,105.236l-1.275-4.029l-1.343,4.029l2.618,0z M416.09617,107.429l0.85,1.496c-0.425,0.374-1.751,1.445-3.655,1.445c-2.805,0-4.42-1.734-4.42-4.624c0-3.026,1.7-4.896,4.675-4.896c1.462,0,2.975,0.595,2.975,0.595l-0.085,2.788l-1.53,0l-0.238-1.207s-0.493-0.136-1.173-0.136c-1.224,0-1.989,0.816-1.989,2.516c0,1.853,0.714,2.924,2.125,2.924c1.19,0,1.938-0.595,2.465-0.901z M426.20284,107.429l0.85,1.496c-0.425,0.374-1.751,1.445-3.655,1.445c-2.805,0-4.42-1.734-4.42-4.624c0-3.026,1.7-4.896,4.675-4.896c1.462,0,2.975,0.595,2.975,0.595l-0.085,2.788l-1.53,0l-0.238-1.207s-0.493-0.136-1.173-0.136c-1.224,0-1.989,0.816-1.989,2.516c0,1.853,0.714,2.924,2.125,2.924c1.19,0,1.938-0.595,2.465-0.901z M437.38051,106.171l-5.644,0c0.102,1.36,0.884,2.159,2.057,2.159c1.411,0,2.856-0.799,2.856-0.799l0.731,1.411s-1.7,1.428-3.876,1.428c-2.924,0-4.42-1.7-4.42-4.59c0-2.975,1.683-4.93,4.539-4.93c2.533,0,3.859,1.564,3.859,3.995c0,0.646-0.102,1.275-0.102,1.326z M431.77051,104.59l3.077,0c0-0.969-0.408-1.7-1.394-1.7c-0.952,0-1.547,0.697-1.683,1.7z M443.52618,108.415l1.53,0.425l0,1.36l-5.457,0l0-1.36l1.36-0.425l0-9.554l-1.36-0.34l0-1.36l3.927-0.136l0,11.39z M455.21385,106.171l-5.644,0c0.102,1.36,0.884,2.159,2.057,2.159c1.411,0,2.856-0.799,2.856-0.799l0.731,1.411s-1.7,1.428-3.876,1.428c-2.924,0-4.42-1.7-4.42-4.59c0-2.975,1.683-4.93,4.539-4.93c2.533,0,3.859,1.564,3.859,3.995c0,0.646-0.102,1.275-0.102,1.326z M449.60385,104.59l3.077,0c0-0.969-0.408-1.7-1.394-1.7c-0.952,0-1.547,0.697-1.683,1.7z M461.25752,101.02l0.153,1.173s1.224-1.343,2.363-1.343c0.935,0,1.581,0.306,1.581,0.306l-0.136,3.264l-1.53,0l-0.255-1.445c-0.986,0-1.836,0.952-1.836,0.952l0,4.488l1.7,0.425l0,1.36l-5.61,0l0-1.36l1.36-0.425l0-5.525l-1.36-0.425l0-1.36z M473.01319,110.2l-0.306-1.105s-1.309,1.275-2.754,1.275c-1.649,0-2.652-0.969-2.652-2.669c0-2.006,1.513-2.805,4.097-2.805l1.19,0l0-0.935c0-0.867-0.459-1.241-1.309-1.241c-0.867,0-1.496,0.255-1.496,0.255l-0.255,1.071l-1.53,0l-0.119-2.516s2.057-0.68,3.689-0.68c2.584,0,3.57,0.901,3.57,3.366l0,4.199l1.275,0.306l0,1.36z M472.58819,106.341l-0.969,0c-1.326,0-1.853,0.34-1.853,1.105c0,0.646,0.357,1.02,1.003,1.02c0.901,0,1.819-0.986,1.819-0.986l0-1.139z M484.64986,108.024l0.612,1.292c-0.833,0.612-1.785,1.054-2.89,1.054c-1.955,0-2.516-1.36-2.516-3.315l0-3.91l-1.581,0l0-1.649l1.581-0.221l0-2.346l2.55-0.459l0,2.805l2.38,0l0,1.87l-2.38,0l0,3.74c0,1.088,0.187,1.53,0.901,1.53c0.459,0,1.122-0.272,1.343-0.391z M495.50453,106.171l-5.644,0c0.102,1.36,0.884,2.159,2.057,2.159c1.411,0,2.856-0.799,2.856-0.799l0.731,1.411s-1.7,1.428-3.876,1.428c-2.924,0-4.42-1.7-4.42-4.59c0-2.975,1.683-4.93,4.539-4.93c2.533,0,3.859,1.564,3.859,3.995c0,0.646-0.102,1.275-0.102,1.326z M489.89453,104.59l3.077,0c0-0.969-0.408-1.7-1.394-1.7c-0.952,0-1.547,0.697-1.683,1.7z"/></svg>
